{"title":"Ratchet And Clank 2016 Movies BRRip XviD ESubs New +Sample ☻rDX☻","uid":15529368,"size":740736336,"categoryP":"video","categoryS":"movies","magnet":"?xt=urn:btih:3dffd3ed890ae6f8f36ad7c1c580f31d3f0411fb&amp;dn=Ratchet+And+Clank+2016+Movies+BRRip+XviD+ESubs+New+%2BSample+%E2%98%BBrDX%E2%98%BB&amp;tr=udp%3A%2F%2Ftracker.leechers-paradise.org%3A6969&amp;tr=udp%3A%2F%2Fzer0day.ch%3A1337&amp;tr=udp%3A%2F%2Fopen.demonii.com%3A1337&amp;tr=udp%3A%2F%2Ftracker.coppersurfer.tk%3A6969&amp;tr=udp%3A%2F%2Fexodus.desync.com%3A6969","seeders":0,"leechers":3,"uploader":"basicssom","files":3,"time":1470811941,"description":"----------------------------------------------------------------\r\nRatchet And Clank 2016 English Movies BRRip XviD ESubs AAC New Source with Sample ☻rDX☻\r\n\r\nSCREEN SHOTS &amp; POSTER:\r\n  \nhttp://postimage.co.nr/2016/8/unlimited/index.htm  \nhttp://postimage.co.nr/2016/8/unlimited/1.html  \nhttp://postimage.co.nr/2016/8/unlimited/2.html  \nhttp://postimage.co.nr/2016/8/unlimited/3.html  \nhttp://postimage.co.nr/2016/8/unlimited/4.html  \nhttp://postimage.co.nr/2016/8/unlimited/5.html  \nhttp://postimage.co.nr/2016/8/unlimited/6.html  \nhttp://postimage.co.nr/2016/8/unlimited/7.html  \nhttp://postimage.co.nr/2016/8/unlimited/8.html  \nhttp://postimage.co.nr/2016/8/unlimited/9.html  \nhttp://postimage.co.nr/2016/8/unlimited/10.html\r\n\r\nFormat                                   : Matroska\r\nFormat version                           : Version 4 / Version 2\r\nFile size                                : 693 MiB\r\nDuration                                 : 1 h 33 min\r\nOverall bit rate                         : 1 040 kb/s\r\nMovie name                               : Ratchet And Clank 2016 English Movies BRRip XviD ESubs AAC New Source ☻rDX☻\r\n\r\nVideo\r\nID                                       : 1\r\nFormat                                   : MPEG-4 Visual\r\nFormat profile                           : Advanced   \r\nFormat settings, BVOP                    : 2\r\nFormat settings, QPel                    : No\r\nFormat settings, GMC                     : No warppoints\r\nFormat settings, Matrix                  : Default (H.263)\r\nMuxing mode                              : Packed bitstream\r\nCodec ID                                 : V_MS/VFW/FOURCC / XVID\r\nCodec ID/Hint                            : XviD\r\nDuration                                 : 1 h 33 min\r\nBit rate                                 : 891 kb/s\r\nWidth                                    : 640 pixels\r\nHeight                                   : 272 pixels\r\nDisplay aspect ratio                     : 2.35:1\r\nFrame rate mode                          : Constant\r\nFrame rate                               : 23.976 (24000/1001) FPS\r\nColor space                              : YUV\r\nChroma subsampling                       : 4:2:0\r\nBit depth                                : 8 bits\r\nScan type                                : Progressive\r\nCompression mode                         : Lossy\r\nBits/(Pixel*Frame)                       : 0.213\r\nStream size                              : 594 MiB (86%)\r\nTitle                                    : ☻rDX☻\r\nWriting library                          : XviD 64\r\nDefault                                  : Yes\r\nForced                                   : No\r\n\r\nAudio\r\nID                                       : 2\r\nFormat                                   : MPEG Audio\r\nFormat version                           : Version 1\r\nFormat profile                           : Layer 3\r\nMode                                     : Joint stereo\r\nMode extension                           : MS Stereo\r\nCodec ID                                 : A_MPEG/L3\r\nCodec ID/Hint                            : MP3\r\nDuration                                 : 1 h 33 min\r\nBit rate mode                            : Constant\r\nBit rate                                 : 128 kb/s\r\nChannel(s)                               : 2 channels\r\nSampling rate                            : 48.0 kHz\r\nCompression mode                         : Lossy\r\nStream size                              : 85.3 MiB (12%)\r\nTitle                                    : ☻rDX☻\r\nWriting library                          : LAME3.98\r\nDefault                                  : Yes\r\nForced                                   : No\r\n\r\nIMDB \nhttp://www.imdb.com/title/tt2865120/","torrent":{"xt":"urn:btih:3dffd3ed890ae6f8f36ad7c1c580f31d3f0411fb","amp;dn":"Ratchet+And+Clank+2016+Movies+BRRip+XviD+ESubs+New+%2BSample+%E2%98%BBrDX%E2%98%BB","amp;tr":["udp%3A%2F%2Ftracker.leechers-paradise.org%3A6969","udp%3A%2F%2Fzer0day.ch%3A1337","udp%3A%2F%2Fopen.demonii.com%3A1337","udp%3A%2F%2Ftracker.coppersurfer.tk%3A6969","udp%3A%2F%2Fexodus.desync.com%3A6969"],"infoHash":"3dffd3ed890ae6f8f36ad7c1c580f31d3f0411fb","infoHashBuffer":{"type":"Buffer","data":[61,255,211,237,137,10,230,248,243,106,215,193,197,128,243,29,63,4,17,251]},"announce":[],"urlList":[]}}